<svg width="168" height="40" viewBox="0 0 168 40" fill="none" xmlns="http://www.w3.org/2000/svg">
<g id="KnetMiner_logo" clip-path="url(#clip0_4894_18022)">
<path id="KnetMiner 4" d="M10.7397 39.9375C10.7397 39.9375 10.8017 39.9375 10.8638 40H1.24158C1.24158 39.3125 0.682869 38.75 0 38.75V31.6875C0.496632 31.6875 0.931185 31.625 1.42782 31.5C3.10395 34.5 6.08374 38.25 10.7397 39.9375ZM26.5077 29.125C25.142 29.125 24.0246 28 24.0246 26.625C24.0246 26.5625 24.0246 26.4375 24.0246 26.375C21.8518 26.0625 19.9894 26.5625 18.3133 27.0625C17.8167 27.1875 17.3821 27.3125 16.8855 27.4375C16.513 29.125 15.0231 30.375 13.2228 30.375C11.1742 30.375 9.49809 28.6875 9.49809 26.625C9.49809 26.125 9.56017 25.6875 9.7464 25.25C7.20116 22.375 4.40761 16.4375 0.807027 4.9375C0.558711 5 0.310395 5 0 5V12.0625C0.682869 12.0625 1.24158 12.625 1.24158 13.3125C1.24158 14 0.682869 14.5625 0 14.5625V21.625C2.73148 21.625 4.96632 23.875 4.96632 26.625C4.96632 28.4375 4.03513 30 2.60732 30.875C4.22137 33.6875 6.95285 37.125 11.1121 38.6875C11.5467 37.9375 12.3537 37.4375 13.2849 37.4375C14.6506 37.4375 15.7681 38.5625 15.7681 39.9375H22.783C22.783 37.875 24.4591 36.1875 26.5077 36.1875C26.5698 36.1875 26.5698 36.1875 26.6319 36.1875C27.0044 33.375 27.0044 31.0625 26.6319 29.0625C26.5698 29.125 26.5077 29.125 26.5077 29.125ZM28.4322 28.1875C28.2459 28.4375 27.9976 28.625 27.7493 28.8125C28.1218 30.9375 28.1839 33.5 27.7493 36.5C29.1771 37.0625 30.1083 38.4375 30.1083 40H34.7642C34.7642 38.5 35.385 37.1875 36.3783 36.3125C33.3364 32.1875 30.7291 29.6875 28.4322 28.1875ZM13.2228 22.9375C15.0852 22.9375 16.6993 24.375 16.8855 26.1875C17.1959 26.125 17.5684 26 17.8788 25.875C19.8032 25.3125 21.9139 24.6875 24.397 25.125C24.5212 24.9375 24.7074 24.75 24.8937 24.625C23.0934 21.5 20.1757 19.75 17.6304 18.1875C16.2026 17.375 14.961 16.5625 13.9678 15.625C13.7195 15.75 13.4091 15.75 13.1607 15.75C11.795 15.75 10.6776 14.625 10.6776 13.25C10.6776 12.375 11.1121 11.625 11.795 11.1875C11.1742 8.5 11.3605 5.75 11.6709 3.625C10.3672 3.0625 9.43601 1.75 9.43601 0.1875C9.43601 0.0625 9.43601 2.23517e-08 9.43601 -0.0625H4.96632C4.96632 2 3.72474 3.75 2.04861 4.5C5.52503 15.625 8.13235 21.375 10.4914 24.125C11.1742 23.4375 12.1054 22.9375 13.2228 22.9375ZM38.489 2.23517e-08H28.9909C28.9909 0.0625 28.9909 0.1875 28.9909 0.25C28.9909 1.625 27.8735 2.75 26.5077 2.75C26.4457 2.75 26.3836 2.75 26.2594 2.75C25.4524 5.625 25.142 7.9375 25.3903 9.75C25.7628 9.625 26.1353 9.5625 26.5077 9.5625C28.5563 9.5625 30.2325 11.25 30.2325 13.3125C30.2325 13.75 30.1704 14.1875 30.0462 14.5625C31.5982 14.75 33.3364 14.5625 34.8884 14.1875C34.7642 13.9375 34.7642 13.625 34.7642 13.3125C34.7642 10.5625 36.9991 8.3125 39.7306 8.3125V1.25C39.0477 1.25 38.489 0.6875 38.489 2.23517e-08ZM35.1988 15.4375C33.9572 15.6875 32.5915 15.9375 31.2878 15.9375C30.6049 15.9375 29.9842 15.875 29.3634 15.75C28.6805 16.5625 27.6252 17.0625 26.5077 17.0625C24.4591 17.0625 22.783 15.375 22.783 13.3125C22.783 12.125 23.3417 11 24.2108 10.3125C23.9004 8.1875 24.1487 5.5625 25.0799 2.3125C24.397 1.875 23.9625 1.125 23.9625 0.25C23.9625 0.125 23.9625 0.0625 23.9625 2.23517e-08H16.9476C16.9476 0.0625 16.9476 0.1875 16.9476 0.25C16.9476 2.3125 15.2714 4 13.2228 4C13.0987 4 13.0366 4 12.9124 4C12.602 5.9375 12.4779 8.4375 12.9745 10.8125C13.0366 10.8125 13.0987 10.8125 13.1607 10.8125C14.5265 10.8125 15.6439 11.9375 15.6439 13.3125C15.6439 13.9375 15.3956 14.5 15.0231 14.9375C15.8922 15.6875 17.0717 16.375 18.3133 17.125C21.0448 18.75 24.2108 20.625 26.1973 24.1875C26.3215 24.1875 26.3836 24.1875 26.5077 24.1875C27.8735 24.1875 28.9909 25.3125 28.9909 26.6875C28.9909 26.8125 28.9909 26.9375 28.9909 27C31.412 28.5625 34.2055 31.25 37.4336 35.625C38.1165 35.25 38.9235 35.0625 39.7306 35.0625V27.9375C39.0477 27.9375 38.489 27.375 38.489 26.6875C38.489 26 39.0477 25.4375 39.7306 25.4375V18.3125C37.744 18.3125 36.0058 17.125 35.1988 15.4375Z" fill="#51CE7B"/>
<g id="Text">
<path id="Vector" d="M62.8796 20.0625L70.3912 28V28.1875H66.7285L60.2103 21.1875V28.1875H57.2305V12.4375H60.2103V19.125L66.1698 12.4375H69.8325V12.5L62.8796 20.0625Z" fill="#121212"/>
<path id="Vector_2" d="M79.2686 22.375C79.2686 20.6875 78.3375 19.375 76.5992 19.375C74.9231 19.375 73.8057 20.8125 73.8057 22.5V28.1875H71.0742V17.0625H73.4953L73.6815 18.5625C74.799 17.4375 75.9164 16.875 77.2821 16.875C79.8894 16.875 81.938 18.8125 81.938 22.3125V28.125H79.2066V22.375H79.2686Z" fill="#121212"/>
<path id="Vector_3" d="M89.822 26C90.8153 26 92.119 25.625 92.8018 24.9375L94.54 26.6875C93.3605 27.875 91.4982 28.5 89.822 28.5C86.0352 28.5 83.7383 26.125 83.7383 22.5625C83.7383 19.1875 86.0352 16.75 89.5737 16.75C92.9881 16.75 95.1608 18.6875 95.1608 22.5625C95.1608 22.875 95.1608 23.25 95.0987 23.625H86.4698C86.7181 25 87.8976 26 89.822 26ZM89.6358 19.1875C88.1459 19.1875 86.9664 19.9375 86.5318 21.375H92.4914C92.3673 19.9375 91.2498 19.1875 89.6358 19.1875Z" fill="#121212"/>
<path id="Vector_4" d="M100.499 17.125H103.541V19.5H100.499V24.3125C100.499 25.375 101.058 25.875 101.927 25.875C102.361 25.875 102.858 25.75 103.23 25.5625L103.975 27.875C103.106 28.1875 102.423 28.375 101.492 28.375C99.2573 28.375 97.7674 27 97.7674 24.3125V19.5H95.7188V17.125H97.7674V14.25L100.499 13.9375V17.125Z" fill="#121212"/>
<path id="Vector_5" d="M114.22 23.625H113.661L108.695 16.75V28.1875H105.715V12.4375H109.129L114.033 19.1875L118.938 12.4375H122.29V28.1875H119.31V16.8125L114.22 23.625Z" fill="#121212"/>
<path id="Vector_6" d="M126.077 12.375C126.884 12.375 127.691 12.875 127.691 14C127.691 15.0625 126.884 15.625 126.077 15.625C125.27 15.625 124.463 15.0625 124.463 14C124.463 12.875 125.27 12.375 126.077 12.375ZM124.711 28.1875H127.443V17.0625H124.711V28.1875Z" fill="#121212"/>
<path id="Vector_7" d="M137.87 22.375C137.87 20.6875 136.939 19.375 135.201 19.375C133.525 19.375 132.407 20.8125 132.407 22.5V28.1875H129.676V17.0625H132.097L132.283 18.5625C133.401 17.4375 134.518 16.875 135.884 16.875C138.491 16.875 140.54 18.8125 140.54 22.3125V28.125H137.808V22.375H137.87Z" fill="#121212"/>
<path id="Vector_8" d="M148.424 26C149.417 26 150.721 25.625 151.403 24.9375L153.142 26.6875C151.962 27.875 150.1 28.5 148.424 28.5C144.637 28.5 142.34 26.125 142.34 22.5625C142.34 19.1875 144.637 16.75 148.175 16.75C151.59 16.75 153.762 18.6875 153.762 22.5625C153.762 22.875 153.762 23.25 153.7 23.625H145.071C145.32 25 146.561 26 148.424 26ZM148.299 19.1875C146.81 19.1875 145.63 19.9375 145.195 21.375H151.155C150.969 19.9375 149.851 19.1875 148.299 19.1875Z" fill="#121212"/>
<path id="Vector_9" d="M158.481 18.375C159.351 17 160.468 16.8125 161.585 16.8125C162.703 16.8125 163.82 17.25 164.441 17.875L163.199 20.25C162.641 19.75 162.144 19.5 161.213 19.5C159.785 19.5 158.481 20.25 158.481 22.3125V28.1875H155.75V17.125H158.295L158.481 18.375Z" fill="#121212"/>
</g>
</g>
<defs>
<clipPath id="clip0_4894_18022">
<rect width="167.5" height="40" fill="white"/>
</clipPath>
</defs>
</svg>
