<svg width="77" height="77" viewBox="0 0 77 77" fill="none" xmlns="http://www.w3.org/2000/svg">
<rect x="0.5" y="0.5" width="76" height="76" rx="38" fill="#373737" stroke="#9BA7BA"/>
<mask id="mask0_1054_11391" style="mask-type:alpha" maskUnits="userSpaceOnUse" x="1" y="1" width="75" height="75">
<rect x="1" y="1" width="75" height="75" rx="37.5" fill="#373737"/>
</mask>
<g mask="url(#mask0_1054_11391)">
<rect x="-6" y="-3" width="97" height="98" rx="5" fill="#EEF0F3"/>
<path d="M36.501 42.416H39.357V41.624C39.357 40.664 39.789 40.064 40.797 39.704C43.701 38.696 44.853 37.4 44.853 35.12C44.853 31.976 42.453 30.056 38.493 30.056C34.605 30.056 32.085 32.096 32.109 35.192H34.917C34.917 33.656 36.405 32.552 38.469 32.552C40.725 32.552 42.021 33.464 42.021 35.072C42.021 36.272 41.277 36.944 39.405 37.544C37.437 38.168 36.501 39.392 36.501 41.384V42.416ZM37.893 47.216C38.853 47.216 39.549 46.568 39.549 45.632C39.549 44.648 38.877 44 37.893 44C36.909 44 36.237 44.648 36.237 45.632C36.237 46.568 36.933 47.216 37.893 47.216Z" fill="#6F7F8F"/>
</g>
</svg>
