<svg
  width="17"
  height="16"
  viewBox="0 0 17 16"
  fill="none"
  xmlns="http://www.w3.org/2000/svg"
>
  <circle opacity="0.15" cx="8.07422" cy="8" r="8" fill="#BDC5CE" />
  <path
    d="M8.67823 4L8.56367 10.429H7.34308L7.22852 4H8.67823ZM7.95558 13.1081C7.71176 13.1081 7.50318 13.0229 7.32987 12.8525C7.15655 12.6792 7.07135 12.4706 7.07429 12.2268C7.07135 11.9859 7.15655 11.7803 7.32987 11.6099C7.50318 11.4366 7.71176 11.3499 7.95558 11.3499C8.19352 11.3499 8.39916 11.4366 8.57248 11.6099C8.7458 11.7803 8.83393 11.9859 8.83686 12.2268C8.83393 12.3884 8.79133 12.5367 8.70908 12.6719C8.62976 12.804 8.52401 12.9098 8.39181 12.9891C8.25962 13.0684 8.11421 13.1081 7.95558 13.1081Z"
    fill="#9BA7BA"
  />
</svg>