<svg width="25" height="25" viewBox="0 0 25 25" fill='none' xmlns="http://www.w3.org/2000/svg">
<g id="Arrow / Right / Left">
<path id="Arrow / Right / Left_2" d="M10.1982 18.3469L10.1115 18.445C9.73595 18.8204 9.14508 18.8493 8.73647 18.5315L8.63835 18.4448L3.43355 13.2389C3.05829 12.8636 3.02926 12.2731 3.34657 11.8645L3.43312 11.7664L8.63792 6.55446C9.04444 6.14739 9.70399 6.14694 10.1111 6.55346C10.4868 6.9287 10.5161 7.51955 10.1987 7.9284L10.1121 8.0266L6.68646 11.4583H20.8333C21.3675 11.4583 21.8078 11.8605 21.868 12.3785L21.875 12.5C21.875 13.0342 21.4729 13.4745 20.9548 13.5347L20.8333 13.5417H6.68333L10.1116 16.9718C10.4871 17.3474 10.5159 17.9383 10.1982 18.3469L10.1115 18.445L10.1982 18.3469Z"/>
</g>
</svg>
