<svg xmlns="http://www.w3.org/2000/svg" width="20" height="20" viewBox="0 0 20 20" fill="#121212">
  <path fill-rule="evenodd" clip-rule="evenodd" d="M4.58398 5.6263L4.58632 3.85717C3.85686 4.11391 3.33398 4.80904 3.33398 5.6263V14.3798C3.33398 16.5659 5.10619 18.3381 7.29232 18.3381H12.7043C12.7087 18.3381 12.7132 18.3381 12.7176 18.3381C12.2895 17.9986 11.9326 17.5733 11.6728 17.0883L7.29232 17.0881C5.79655 17.0881 4.58398 15.8756 4.58398 14.3798V5.6263ZM16.6647 11.4785V7.39386C16.6647 6.89676 16.4673 6.42002 16.1159 6.06842L12.2672 2.21753C11.9156 1.86566 11.4385 1.66797 10.941 1.66797H7.29432C6.25879 1.66797 5.41932 2.50743 5.41932 3.54297V14.3798C5.41932 15.4153 6.25879 16.2548 7.29432 16.2548H11.3411C11.2499 15.9195 11.2012 15.5666 11.2012 15.2023C11.2012 15.1361 11.2028 15.0703 11.206 15.0048H7.29432C6.94915 15.0048 6.66932 14.725 6.66932 14.3798V3.54297C6.66932 3.19779 6.94915 2.91797 7.29432 2.91797H10.8335L10.834 5.62954L10.8383 5.75792C10.9043 6.73358 11.7166 7.50454 12.709 7.50454L15.4143 7.5038L15.4145 11.2079C15.8537 11.231 16.2742 11.325 16.6647 11.4785ZM12.084 5.62954L12.0835 3.80214L14.5343 6.2538L12.709 6.25454L12.6242 6.24884C12.3191 6.20745 12.084 5.94596 12.084 5.62954Z"/>
  <path d="M17.6008 13.2842L17.1174 12.8008L15.2008 14.7174L13.2842 12.8008L12.8008 13.2842L14.7174 15.2008L12.8008 17.1174L13.2842 17.6008L15.2008 15.6842L17.1174 17.6008L17.6008 17.1174L15.6842 15.2008L17.6008 13.2842Z" stroke="black" stroke-width="0.4"/>
</svg>