<svg width="20" height="20" viewBox="0 0 20 20" fill="none" xmlns="http://www.w3.org/2000/svg">
<g id="Copy">
<path id="Copy_2" d="M4.58632 3.85717L4.58398 5.6263V14.3798C4.58398 15.8756 5.79655 17.0881 7.29232 17.0881L14.4726 17.0884C14.2151 17.8165 13.5206 18.3381 12.7043 18.3381H7.29232C5.10619 18.3381 3.33398 16.5659 3.33398 14.3798V5.6263C3.33398 4.80904 3.85686 4.11391 4.58632 3.85717ZM10.941 1.66797C11.4385 1.66797 11.9156 1.86566 12.2672 2.21753L16.1159 6.06842C16.4673 6.42002 16.6647 6.89676 16.6647 7.39386V14.3798C16.6647 15.4153 15.8252 16.2548 14.7897 16.2548H7.29432C6.25879 16.2548 5.41932 15.4153 5.41932 14.3798V3.54297C5.41932 2.50743 6.25879 1.66797 7.29432 1.66797H10.941ZM10.8335 2.91797H7.29432C6.94915 2.91797 6.66932 3.19779 6.66932 3.54297V14.3798C6.66932 14.725 6.94915 15.0048 7.29432 15.0048H14.7897C15.1348 15.0048 15.4147 14.725 15.4147 14.3798L15.4143 7.5038L12.709 7.50454C11.7166 7.50454 10.9043 6.73358 10.8383 5.75792L10.834 5.62954L10.8335 2.91797ZM12.0835 3.80214L12.084 5.62954C12.084 5.94596 12.3191 6.20745 12.6242 6.24884L12.709 6.25454L14.5343 6.2538L12.0835 3.80214Z"/>
</g>
</svg>
