<svg xmlns="http://www.w3.org/2000/svg" width="20" height="20" viewBox="0 0 20 20" fill="#51CE7B">
  <path fill-rule="evenodd" clip-rule="evenodd" d="M5.83464 12.4987H8.33464C8.79297 12.4987 9.16797 12.8737 9.16797 13.332C9.16797 13.7904 8.79297 14.1654 8.33464 14.1654H5.83464C3.53464 14.1654 1.66797 12.2987 1.66797 9.9987C1.66797 7.6987 3.53464 5.83203 5.83464 5.83203H8.33464C8.79297 5.83203 9.16797 6.20703 9.16797 6.66536C9.16797 7.1237 8.79297 7.4987 8.33464 7.4987H5.83464C4.45964 7.4987 3.33464 8.6237 3.33464 9.9987C3.33464 11.3737 4.45964 12.4987 5.83464 12.4987ZM14.1669 5.83203H11.6669C11.2086 5.83203 10.8336 6.20703 10.8336 6.66536C10.8336 7.1237 11.2086 7.4987 11.6669 7.4987H14.1669C15.5419 7.4987 16.6669 8.6237 16.6669 9.9987C16.6669 11.3737 15.5419 12.4987 14.1669 12.4987H11.6669C11.2086 12.4987 10.8336 12.8737 10.8336 13.332C10.8336 13.7904 11.2086 14.1654 11.6669 14.1654H14.1669C16.4669 14.1654 18.3336 12.2987 18.3336 9.9987C18.3336 7.6987 16.4669 5.83203 14.1669 5.83203ZM6.66797 9.99974C6.66797 10.4581 7.04297 10.8331 7.5013 10.8331H12.5013C12.9596 10.8331 13.3346 10.4581 13.3346 9.99974C13.3346 9.54141 12.9596 9.16641 12.5013 9.16641H7.5013C7.04297 9.16641 6.66797 9.54141 6.66797 9.99974Z" />
</svg>