<svg xmlns="http://www.w3.org/2000/svg" width="40" height="40" viewBox="0 0 40 40" fill="none">
<path d="M26.5337 18.391L25.5796 29.7572C25.2939 33.2603 22.3085 35.9993 18.7924 35.9993H12.4677C8.95158 35.9993 5.9662 33.2603 5.6805 29.7572L4.72644 18.391C4.69892 18.0096 4.82211 17.6414 5.08028 17.3544C5.33977 17.0818 5.70802 16.918 6.08939 16.918H14.2671V29.1976C14.2671 29.9473 14.8804 30.5606 15.63 30.5606C16.3797 30.5606 16.993 29.9473 16.993 29.1976V16.918H25.1707C25.5521 16.918 25.9203 17.0818 26.1798 17.3544C26.438 17.6414 26.5599 18.0083 26.5337 18.391Z" fill="#6F7F8F"/>
<path d="M21.0813 11.4649V11.4518C21.0813 8.44021 18.6411 6 15.6295 6C12.6179 6 10.1777 8.44021 10.1777 11.4518V11.4649H3.36295C2.61333 11.4649 2 12.0651 2 12.8279C2 13.5775 2.61333 14.1908 3.36295 14.1908H21.0813C21.8309 14.1908 22.4443 13.5775 22.4443 12.8279C22.4443 12.0651 21.8296 11.4649 21.0813 11.4649ZM12.9036 11.4649V11.4518C12.9036 9.95256 14.1303 8.7259 15.6295 8.7259C17.1288 8.7259 18.3554 9.95256 18.3554 11.4518V11.4649H12.9036Z" fill="#6F7F8F"/>
<path d="M30.7553 10.2887V7L25 12.7553L30.7553 18.5105V15.1396C34.8661 15.1396 37.7438 16.4551 39.7992 19.3327C38.977 15.2218 36.5105 11.1109 30.7553 10.2887Z" fill="#51CE7B"/>
</svg>