<svg width="25" height="25" viewBox="0 0 25 25" fill="none" xmlns="http://www.w3.org/2000/svg">
<g id="icon/file/download_24px">
<path id="icon/file/download_24px_2" fill-rule="evenodd" clip-rule="evenodd" d="M15.6257 9.89453H17.282C18.2091 9.89453 18.6674 11.0195 18.0111 11.6758L13.2299 16.457C12.8236 16.8633 12.1674 16.8633 11.7611 16.457L6.9799 11.6758C6.32365 11.0195 6.7924 9.89453 7.71948 9.89453H9.37573V4.6862C9.37573 4.11328 9.84448 3.64453 10.4174 3.64453H14.5841C15.157 3.64453 15.6257 4.11328 15.6257 4.6862V9.89453ZM6.25065 21.3529C5.67773 21.3529 5.20898 20.8841 5.20898 20.3112C5.20898 19.7383 5.67773 19.2695 6.25065 19.2695H18.7507C19.3236 19.2695 19.7923 19.7383 19.7923 20.3112C19.7923 20.8841 19.3236 21.3529 18.7507 21.3529H6.25065Z" />
</g>
</svg>
