<svg width="16" height="16" viewBox="0 0 16 16" fill="#s51CE7B" xmlns="http://www.w3.org/2000/svg">
<g id="Icons / Info">
<path id="Info / Solid" d="M7.99973 1.33203C11.6822 1.33203 14.6674 4.31726 14.6674 7.99973C14.6674 11.6822 11.6822 14.6674 7.99973 14.6674C4.31726 14.6674 1.33203 11.6822 1.33203 7.99973C1.33203 4.31726 4.31726 1.33203 7.99973 1.33203ZM7.99719 6.83242C7.6553 6.83264 7.37369 7.09019 7.3354 7.42177L7.33096 7.49952L7.33336 11.1673L7.3379 11.245C7.37663 11.5765 7.65858 11.8337 8.00047 11.8335C8.34236 11.8333 8.62397 11.5757 8.66226 11.2441L8.6667 11.1664L8.6643 7.49865L8.65976 7.42091C8.62103 7.08937 8.33908 6.8322 7.99719 6.83242ZM8.00003 4.33272C7.53923 4.33272 7.16568 4.70627 7.16568 5.16707C7.16568 5.62786 7.53923 6.00141 8.00003 6.00141C8.46083 6.00141 8.83438 5.62786 8.83438 5.16707C8.83438 4.70627 8.46083 4.33272 8.00003 4.33272Z"/>
</g>
</svg>
