<svg width="25" height="25" viewBox="0 0 25 25" fill="none" xmlns="http://www.w3.org/2000/svg">
<circle cx="12.5" cy="12.5" r="11.875" stroke="#121212" stroke-width="1.25"/>
<path fill='#121212' fill-rule="evenodd" clip-rule="evenodd" d="M9.375 14.375H11.25C11.5937 14.375 11.875 14.6562 11.875 15C11.875 15.3437 11.5937 15.625 11.25 15.625H9.375C7.65 15.625 6.25 14.225 6.25 12.5C6.25 10.775 7.65 9.375 9.375 9.375H11.25C11.5937 9.375 11.875 9.65625 11.875 10C11.875 10.3437 11.5937 10.625 11.25 10.625H9.375C8.34375 10.625 7.5 11.4687 7.5 12.5C7.5 13.5312 8.34375 14.375 9.375 14.375ZM15.625 9.375H13.75C13.4063 9.375 13.125 9.65625 13.125 10C13.125 10.3437 13.4063 10.625 13.75 10.625H15.625C16.6563 10.625 17.5 11.4687 17.5 12.5C17.5 13.5312 16.6563 14.375 15.625 14.375H13.75C13.4063 14.375 13.125 14.6562 13.125 15C13.125 15.3437 13.4063 15.625 13.75 15.625H15.625C17.35 15.625 18.75 14.225 18.75 12.5C18.75 10.775 17.35 9.375 15.625 9.375ZM10 12.5C10 12.8437 10.2812 13.125 10.625 13.125H14.375C14.7188 13.125 15 12.8437 15 12.5C15 12.1562 14.7188 11.875 14.375 11.875H10.625C10.2812 11.875 10 12.1562 10 12.5Z" />
</svg>
