<svg xmlns="http://www.w3.org/2000/svg" width="20" height="20" viewBox="0 0 20 20" fill="none">
  <path fill="#51CE7B" fill-rule="evenodd" clip-rule="evenodd" d="M14.1673 7.08333H15.0006C15.9173 7.08333 16.6673 7.83333 16.6673 8.75V17.0833C16.6673 18 15.9173 18.75 15.0006 18.75H5.00065C4.08398 18.75 3.33398 18 3.33398 17.0833V8.75C3.33398 7.83333 4.08398 7.08333 5.00065 7.08333H5.83398V5.41667C5.83398 3.11667 7.70065 1.25 10.0006 1.25C12.3006 1.25 14.1673 3.11667 14.1673 5.41667V7.08333ZM10.0007 2.91667C8.61732 2.91667 7.50065 4.03333 7.50065 5.41667V7.08333H12.5007V5.41667C12.5007 4.03333 11.384 2.91667 10.0007 2.91667ZM15.0007 8.75V17.0833H5.00065V8.75H15.0007ZM11.6673 12.9167C11.6673 13.8333 10.9173 14.5833 10.0007 14.5833C9.08398 14.5833 8.33398 13.8333 8.33398 12.9167C8.33398 12 9.08398 11.25 10.0007 11.25C10.9173 11.25 11.6673 12 11.6673 12.9167Z"/>
</svg>