<svg width="20" height="20" viewBox="0 0 20 20" fill="#51CE7B" xmlns="http://www.w3.org/2000/svg" >
<path d="M9.99935 1.66669C14.6017 1.66669 18.3327 5.39765 18.3327 10C18.3327 14.6024 14.6017 18.3334 9.99935 18.3334C5.39698 18.3334 1.66602 14.6024 1.66602 10C1.66602 5.39765 5.39698 1.66669 9.99935 1.66669ZM9.99935 2.91669C6.08733 2.91669 2.91602 6.088 2.91602 10C2.91602 13.912 6.08733 17.0834 9.99935 17.0834C13.9114 17.0834 17.0827 13.912 17.0827 10C17.0827 6.088 13.9114 2.91669 9.99935 2.91669ZM9.99935 5.83335C10.3445 5.83335 10.6243 6.11318 10.6243 6.45835V9.37502H13.541C13.8862 9.37502 14.166 9.65484 14.166 10C14.166 10.3452 13.8862 10.625 13.541 10.625H10.6243V13.5417C10.6243 13.8869 10.3445 14.1667 9.99935 14.1667C9.65417 14.1667 9.37435 13.8869 9.37435 13.5417V10.625H6.45768C6.1125 10.625 5.83268 10.3452 5.83268 10C5.83268 9.65484 6.1125 9.37502 6.45768 9.37502H9.37435V6.45835C9.37435 6.11318 9.65417 5.83335 9.99935 5.83335Z" fill="#51CE7B"/>
</svg>