<svg width="21" height="20" viewBox="0 0 21 20" fill="#fff" xmlns="http://www.w3.org/2000/svg">
<g id="Icons / AddRemove">
<path id="Add" d="M10.4028 2.50561L10.5 2.5C10.9274 2.5 11.2796 2.8217 11.3277 3.23615L11.3333 3.33333V9.16667H17.1667C17.594 9.16667 17.9463 9.48837 17.9944 9.90282L18 10C18 10.4274 17.6783 10.7796 17.2639 10.8277L17.1667 10.8333H11.3333V16.6667C11.3333 17.094 11.0116 17.4463 10.5972 17.4944L10.5 17.5C10.0726 17.5 9.72041 17.1783 9.67227 16.7639L9.66667 16.6667V10.8333H3.83333C3.40597 10.8333 3.05374 10.5116 3.00561 10.0972L3 10C3 9.57264 3.3217 9.22041 3.73615 9.17227L3.83333 9.16667H9.66667V3.33333C9.66667 2.90597 9.98837 2.55374 10.4028 2.50561L10.5 2.5L10.4028 2.50561Z"/>
</g>
</svg>
