<svg width="20" height="20" viewBox="0 0 20 20" fill="#6F7F8F" xmlns="http://www.w3.org/2000/svg">
<g id="Search">
<path id="Search_2" d="M8.33398 2.08203C11.7858 2.08203 14.584 4.88025 14.584 8.33203C14.584 9.75715 14.107 11.0709 13.304 12.1223L17.2566 16.0761C17.582 16.4015 17.582 16.9292 17.2566 17.2546C16.9562 17.555 16.4835 17.5781 16.1566 17.3239L16.0781 17.2546L12.1242 13.302C11.0728 14.1051 9.75911 14.582 8.33398 14.582C4.8822 14.582 2.08398 11.7838 2.08398 8.33203C2.08398 4.88025 4.8822 2.08203 8.33398 2.08203ZM8.33398 3.7487C5.80268 3.7487 3.75065 5.80073 3.75065 8.33203C3.75065 10.8633 5.80268 12.9154 8.33398 12.9154C10.8653 12.9154 12.9173 10.8633 12.9173 8.33203C12.9173 5.80073 10.8653 3.7487 8.33398 3.7487Z"/>
</g>
</svg>
