<svg xmlns="http://www.w3.org/2000/svg" width="25" height="25" viewBox="0 0 25 25" fill="none">
  <path d="M7.02783 4.16627H10.6364C11.0679 4.16627 11.4176 4.51605 11.4176 4.94752C11.4176 5.34304 11.1237 5.66991 10.7424 5.72164L10.6364 5.72877H7.02783C5.78735 5.72877 4.77195 6.69248 4.68949 7.91205L4.68408 8.07252V17.9684C4.68408 19.2088 5.64779 20.2242 6.86736 20.3067L7.02783 20.3121H16.9244C18.1649 20.3121 19.1803 19.3484 19.2628 18.1288L19.2682 17.9684V17.4498C19.2682 17.0184 19.618 16.6686 20.0494 16.6686C20.4449 16.6686 20.7718 16.9625 20.8235 17.3438L20.8307 17.4498V17.9684C20.8307 20.0561 19.1928 21.7613 17.1319 21.8692L16.9244 21.8746H7.02783C4.94006 21.8746 3.23484 20.2367 3.127 18.1758L3.12158 17.9684V8.07252C3.12158 5.98475 4.75946 4.27953 6.82038 4.17168L7.02783 4.16627H10.6364H7.02783ZM15.1049 6.79112V3.90585C15.1049 3.25588 15.8411 2.9058 16.3413 3.27023L16.427 3.34204L22.6713 9.33163C22.9628 9.61115 22.9893 10.0601 22.7509 10.3705L22.6714 10.4592L16.4271 16.4507C15.958 16.9007 15.1956 16.6118 15.1124 15.9985L15.1049 15.887V13.0481L14.7471 13.0794C12.2474 13.3402 9.85155 14.4661 7.54445 16.476C7.00371 16.9471 6.16711 16.5017 6.25605 15.7901C6.94853 10.2489 9.84632 7.1947 14.7931 6.81158L15.1049 6.79112V3.90585V6.79112ZM16.6674 5.73777V7.55169C16.6674 7.98316 16.3176 8.33294 15.8862 8.33294C11.8514 8.33294 9.35072 10.0789 8.27025 13.705L8.1879 13.9952L8.55477 13.7485C10.8844 12.2258 13.3317 11.4579 15.8862 11.4579C16.2817 11.4579 16.6085 11.7518 16.6603 12.1332L16.6674 12.2392V14.0546L21.002 9.89553L16.6674 5.73777Z" fill="#BDC5CE"/>
</svg>