<svg xmlns="http://www.w3.org/2000/svg" width="20" height="20" viewBox="0 0 20 20" fill="#121212">
  <path d="M12.291 12.5C13.0964 12.5 13.7493 13.1529 13.7493 13.9583L13.7485 14.7601C13.8457 16.5843 12.4893 17.5075 10.055 17.5075C7.6309 17.5075 6.24935 16.5993 6.24935 14.7917V13.9583C6.24935 13.1529 6.90227 12.5 7.70768 12.5H12.291ZM12.291 13.75H7.70768C7.59262 13.75 7.49935 13.8433 7.49935 13.9583V14.7917C7.49935 15.7718 8.23824 16.2575 10.055 16.2575C11.8616 16.2575 12.5515 15.788 12.4993 14.7933V13.9583C12.4993 13.8433 12.4061 13.75 12.291 13.75ZM3.12435 8.33333L6.77101 8.3334C6.70247 8.59973 6.66602 8.87894 6.66602 9.16667C6.66602 9.30759 6.67476 9.44647 6.69174 9.58279L3.12435 9.58333C3.00929 9.58333 2.91602 9.67661 2.91602 9.79167V10.625C2.91602 11.6051 3.6549 12.0909 5.47167 12.0909C5.85659 12.0909 6.19082 12.0695 6.47797 12.0264C6.00699 12.3248 5.6539 12.7908 5.50037 13.3401L5.47167 13.3409C3.04757 13.3409 1.66602 12.4327 1.66602 10.625V9.79167C1.66602 8.98625 2.31893 8.33333 3.12435 8.33333ZM16.8743 8.33333C17.6798 8.33333 18.3327 8.98625 18.3327 9.79167L18.3318 10.5934C18.429 12.4176 17.0726 13.3409 14.6383 13.3409L14.4981 13.3394C14.3402 12.7752 13.9718 12.2989 13.4829 12.0006C13.8051 12.0611 14.1887 12.0909 14.6383 12.0909C16.4449 12.0909 17.1348 11.6213 17.0827 10.6266V9.79167C17.0827 9.67661 16.9894 9.58333 16.8743 9.58333L13.307 9.58268C13.3239 9.44639 13.3327 9.30755 13.3327 9.16667C13.3327 8.87894 13.2962 8.59973 13.2277 8.3334L16.8743 8.33333ZM9.99935 6.66667C11.3801 6.66667 12.4993 7.78595 12.4993 9.16667C12.4993 10.5474 11.3801 11.6667 9.99935 11.6667C8.61864 11.6667 7.49935 10.5474 7.49935 9.16667C7.49935 7.78595 8.61864 6.66667 9.99935 6.66667ZM9.99935 7.91667C9.30899 7.91667 8.74935 8.47631 8.74935 9.16667C8.74935 9.85702 9.30899 10.4167 9.99935 10.4167C10.6897 10.4167 11.2493 9.85702 11.2493 9.16667C11.2493 8.47631 10.6897 7.91667 9.99935 7.91667ZM5.41602 2.5C6.79673 2.5 7.91602 3.61929 7.91602 5C7.91602 6.38071 6.79673 7.5 5.41602 7.5C4.0353 7.5 2.91602 6.38071 2.91602 5C2.91602 3.61929 4.0353 2.5 5.41602 2.5ZM14.5827 2.5C15.9634 2.5 17.0827 3.61929 17.0827 5C17.0827 6.38071 15.9634 7.5 14.5827 7.5C13.202 7.5 12.0827 6.38071 12.0827 5C12.0827 3.61929 13.202 2.5 14.5827 2.5ZM5.41602 3.75C4.72566 3.75 4.16602 4.30964 4.16602 5C4.16602 5.69036 4.72566 6.25 5.41602 6.25C6.10637 6.25 6.66602 5.69036 6.66602 5C6.66602 4.30964 6.10637 3.75 5.41602 3.75ZM14.5827 3.75C13.8923 3.75 13.3327 4.30964 13.3327 5C13.3327 5.69036 13.8923 6.25 14.5827 6.25C15.273 6.25 15.8327 5.69036 15.8327 5C15.8327 4.30964 15.273 3.75 14.5827 3.75Z"/>
</svg>