<svg width="20" height="20" viewBox="0 0 20 20" fill="none" xmlns="http://www.w3.org/2000/svg">
<g id="Twitter">
<path id="Twitter_2" d="M15.9438 7.2C16.5688 6.73846 17.1313 6.18462 17.6001 5.50769C16.9751 5.78462 16.3501 5.96923 15.7251 6.03077C16.4126 5.6 16.9126 5.01538 17.1626 4.24615C16.5063 4.61538 15.8188 4.89231 15.0688 5.01538C14.7563 4.70769 14.3813 4.46154 13.9751 4.27692C13.5688 4.09231 13.1313 4 12.6626 4C12.0688 4 11.5376 4.15385 11.0376 4.43077C10.5376 4.73846 10.1313 5.13846 9.8501 5.63077C9.5376 6.12308 9.4126 6.67692 9.4126 7.23077C9.4126 7.47692 9.4126 7.72308 9.4751 7.96923C8.13135 7.90769 6.88135 7.6 5.69385 6.98462C4.50635 6.4 3.5376 5.6 2.7251 4.58462C2.4126 5.10769 2.25635 5.66154 2.25635 6.21538C2.25635 6.76923 2.38135 7.29231 2.6626 7.75385C2.9126 8.24615 3.2876 8.61538 3.7251 8.92308C3.19385 8.92308 2.69385 8.76923 2.25635 8.49231V8.55385C2.25635 9.32308 2.50635 10 3.00635 10.5846C3.50635 11.2 4.13135 11.5692 4.88135 11.7231C4.56885 11.7846 4.2876 11.8154 4.00635 11.8154C3.81885 11.8154 3.6001 11.8154 3.4126 11.7846C3.6001 12.4308 3.9751 12.9538 4.5376 13.3846C5.1001 13.8154 5.7251 14 6.4751 14C5.25635 14.9231 3.88135 15.3846 2.38135 15.3846C2.06885 15.3846 1.81885 15.3846 1.6001 15.3538C3.1001 16.3385 4.7876 16.8 6.63135 16.8C8.5376 16.8 10.2251 16.3385 11.7251 15.3538C13.0688 14.4923 14.1313 13.3538 14.8813 11.8769C15.6001 10.5231 15.9751 9.07692 15.9751 7.6C15.9751 7.41538 15.9438 7.29231 15.9438 7.2Z"/>
</g>
</svg>
