<svg width="20" height="20" viewBox="0 0 20 20" fill="none" xmlns="http://www.w3.org/2000/svg">
<g id="icon/action/toc_24px">
<path id="icon/action/toc_24px_2" fill-rule="evenodd" clip-rule="evenodd" d="M13.3333 7.4987H3.33333C2.875 7.4987 2.5 7.1237 2.5 6.66536C2.5 6.20703 2.875 5.83203 3.33333 5.83203H13.3333C13.7917 5.83203 14.1667 6.20703 14.1667 6.66536C14.1667 7.1237 13.7917 7.4987 13.3333 7.4987ZM13.3333 10.832H3.33333C2.875 10.832 2.5 10.457 2.5 9.9987C2.5 9.54036 2.875 9.16536 3.33333 9.16536H13.3333C13.7917 9.16536 14.1667 9.54036 14.1667 9.9987C14.1667 10.457 13.7917 10.832 13.3333 10.832ZM3.33333 14.1654H13.3333C13.7917 14.1654 14.1667 13.7904 14.1667 13.332C14.1667 12.8737 13.7917 12.4987 13.3333 12.4987H3.33333C2.875 12.4987 2.5 12.8737 2.5 13.332C2.5 13.7904 2.875 14.1654 3.33333 14.1654ZM17.5 14.1654H15.8333V12.4987H17.5V14.1654ZM15.8333 5.83203V7.4987H17.5V5.83203H15.8333ZM17.5 10.832H15.8333V9.16536H17.5V10.832Z"/>
</g>
</svg>
