<svg width="20" height="20" viewBox="0 0 20 20" fill="none" xmlns="http://www.w3.org/2000/svg">
<g id="icon/action/view_module_24px">
<path id="icon/action/view_module_24px_2" fill-rule="evenodd" clip-rule="evenodd" d="M6.24935 9.58203H3.74935C3.29102 9.58203 2.91602 9.20703 2.91602 8.7487V5.41536C2.91602 4.95703 3.29102 4.58203 3.74935 4.58203H6.24935C6.70768 4.58203 7.08268 4.95703 7.08268 5.41536V8.7487C7.08268 9.20703 6.70768 9.58203 6.24935 9.58203ZM6.24935 15.4154H3.74935C3.29102 15.4154 2.91602 15.0404 2.91602 14.582V11.2487C2.91602 10.7904 3.29102 10.4154 3.74935 10.4154H6.24935C6.70768 10.4154 7.08268 10.7904 7.08268 11.2487V14.582C7.08268 15.0404 6.70768 15.4154 6.24935 15.4154ZM8.74935 15.4154H11.2493C11.7077 15.4154 12.0827 15.0404 12.0827 14.582V11.2487C12.0827 10.7904 11.7077 10.4154 11.2493 10.4154H8.74935C8.29102 10.4154 7.91602 10.7904 7.91602 11.2487V14.582C7.91602 15.0404 8.29102 15.4154 8.74935 15.4154ZM16.2493 15.4154H13.7493C13.291 15.4154 12.916 15.0404 12.916 14.582V11.2487C12.916 10.7904 13.291 10.4154 13.7493 10.4154H16.2493C16.7077 10.4154 17.0827 10.7904 17.0827 11.2487V14.582C17.0827 15.0404 16.7077 15.4154 16.2493 15.4154ZM8.74935 9.58203H11.2493C11.7077 9.58203 12.0827 9.20703 12.0827 8.7487V5.41536C12.0827 4.95703 11.7077 4.58203 11.2493 4.58203H8.74935C8.29102 4.58203 7.91602 4.95703 7.91602 5.41536V8.7487C7.91602 9.20703 8.29102 9.58203 8.74935 9.58203ZM12.916 8.7487V5.41536C12.916 4.95703 13.291 4.58203 13.7493 4.58203H16.2493C16.7077 4.58203 17.0827 4.95703 17.0827 5.41536V8.7487C17.0827 9.20703 16.7077 9.58203 16.2493 9.58203H13.7493C13.291 9.58203 12.916 9.20703 12.916 8.7487Z" />
</g>
</svg>
