<svg width="20" height="20" viewBox="0 0 20 20" fill="none" xmlns="http://www.w3.org/2000/svg">
<g id="Google__G__Logo 1" clip-path="url(#clip0_3766_15705)">
<g id="Group">
<path id="Vector" d="M10 8.18359V12.0563H15.3818C15.1455 13.3018 14.4363 14.3564 13.3727 15.0655L16.6182 17.5837C18.5091 15.8383 19.6 13.2746 19.6 10.2292C19.6 9.52008 19.5364 8.83819 19.4182 8.1837L10 8.18359Z" fill="#4285F4"/>
<path id="Vector_2" d="M4.39521 11.9023L3.66323 12.4627L1.07227 14.4808C2.71772 17.7444 6.09022 19.999 9.9993 19.999C12.6993 19.999 14.9629 19.1081 16.6175 17.5809L13.372 15.0627C12.4811 15.6627 11.3447 16.0263 9.9993 16.0263C7.3993 16.0263 5.19026 14.2718 4.39929 11.9081L4.39521 11.9023Z" fill="#34A853"/>
<path id="Vector_3" d="M1.07266 5.51562C0.39087 6.86103 0 8.37924 0 9.99741C0 11.6156 0.39087 13.1338 1.07266 14.4792C1.07266 14.4882 4.4 11.8974 4.4 11.8974C4.2 11.2974 4.08179 10.661 4.08179 9.9973C4.08179 9.33358 4.2 8.69725 4.4 8.09725L1.07266 5.51562Z" fill="#FBBC05"/>
<path id="Vector_4" d="M9.99951 3.98184C11.4723 3.98184 12.7813 4.49092 13.8268 5.47275L16.6904 2.60914C14.954 0.990976 12.6996 0 9.99951 0C6.09043 0 2.71773 2.24546 1.07227 5.51822L4.39951 8.10005C5.19038 5.73638 7.39951 3.98184 9.99951 3.98184Z" fill="#EA4335"/>
</g>
</g>
<defs>
<clipPath id="clip0_3766_15705">
<rect width="20" height="20" fill="white"/>
</clipPath>
</defs>
</svg>
