<svg width="165" height="40" viewBox="0 0 165 40" fill="none" xmlns="http://www.w3.org/2000/svg">
<g clip-path="url(#clip0_3762_15108)">
<path d="M10.7676 39.9375C10.7676 39.9375 10.8299 39.9375 10.8921 40H1.24481C1.24481 39.3125 0.684647 38.75 0 38.75V31.6875C0.497925 31.6875 0.93361 31.625 1.43154 31.5C3.11203 34.5 6.09958 38.25 10.7676 39.9375ZM26.5768 29.125C25.2075 29.125 24.0871 28 24.0871 26.625C24.0871 26.5625 24.0871 26.4375 24.0871 26.375C21.9087 26.0625 20.0415 26.5625 18.361 27.0625C17.8631 27.1875 17.4274 27.3125 16.9295 27.4375C16.556 29.125 15.0622 30.375 13.2573 30.375C11.2033 30.375 9.52282 28.6875 9.52282 26.625C9.52282 26.125 9.58506 25.6875 9.77178 25.25C7.21992 22.375 4.41909 16.4375 0.809129 4.9375C0.560166 5 0.311203 5 0 5V12.0625C0.684647 12.0625 1.24481 12.625 1.24481 13.3125C1.24481 14 0.684647 14.5625 0 14.5625V21.625C2.73859 21.625 4.97925 23.875 4.97925 26.625C4.97925 28.4375 4.04564 30 2.61411 30.875C4.23237 33.6875 6.97095 37.125 11.1411 38.6875C11.5768 37.9375 12.3859 37.4375 13.3195 37.4375C14.6888 37.4375 15.8091 38.5625 15.8091 39.9375H22.8423C22.8423 37.875 24.5228 36.1875 26.5768 36.1875C26.639 36.1875 26.639 36.1875 26.7012 36.1875C27.0747 33.375 27.0747 31.0625 26.7012 29.0625C26.639 29.125 26.5768 29.125 26.5768 29.125ZM28.5062 28.1875C28.3195 28.4375 28.0705 28.625 27.8216 28.8125C28.195 30.9375 28.2573 33.5 27.8216 36.5C29.2531 37.0625 30.1867 38.4375 30.1867 40H34.8548C34.8548 38.5 35.4772 37.1875 36.473 36.3125C33.4232 32.1875 30.8091 29.6875 28.5062 28.1875ZM13.2573 22.9375C15.1245 22.9375 16.7427 24.375 16.9295 26.1875C17.2407 26.125 17.6141 26 17.9253 25.875C19.8548 25.3125 21.971 24.6875 24.4606 25.125C24.5851 24.9375 24.7718 24.75 24.9585 24.625C23.1535 21.5 20.2282 19.75 17.6763 18.1875C16.2448 17.375 15 16.5625 14.0041 15.625C13.7552 15.75 13.444 15.75 13.195 15.75C11.8257 15.75 10.7054 14.625 10.7054 13.25C10.7054 12.375 11.1411 11.625 11.8257 11.1875C11.2033 8.5 11.39 5.75 11.7012 3.625C10.3942 3.0625 9.46058 1.75 9.46058 0.1875C9.46058 0.0625 9.46058 7.45058e-09 9.46058 -0.0625H4.97925C4.97925 2 3.73444 3.75 2.05394 4.5C5.53942 15.625 8.15353 21.375 10.5187 24.125C11.2033 23.4375 12.1369 22.9375 13.2573 22.9375ZM38.5892 7.45058e-09H29.0664C29.0664 0.0625 29.0664 0.1875 29.0664 0.25C29.0664 1.625 27.9461 2.75 26.5768 2.75C26.5145 2.75 26.4523 2.75 26.3278 2.75C25.5187 5.625 25.2075 7.9375 25.4564 9.75C25.8299 9.625 26.2033 9.5625 26.5768 9.5625C28.6307 9.5625 30.3112 11.25 30.3112 13.3125C30.3112 13.75 30.249 14.1875 30.1245 14.5625C31.6805 14.75 33.4232 14.5625 34.9793 14.1875C34.8548 13.9375 34.8548 13.625 34.8548 13.3125C34.8548 10.5625 37.0954 8.3125 39.834 8.3125V1.25C39.1494 1.25 38.5892 0.6875 38.5892 7.45058e-09ZM35.2905 15.4375C34.0456 15.6875 32.6763 15.9375 31.3693 15.9375C30.6846 15.9375 30.0622 15.875 29.4398 15.75C28.7552 16.5625 27.6971 17.0625 26.5768 17.0625C24.5228 17.0625 22.8423 15.375 22.8423 13.3125C22.8423 12.125 23.4025 11 24.2739 10.3125C23.9627 8.1875 24.2116 5.5625 25.1452 2.3125C24.4606 1.875 24.0249 1.125 24.0249 0.25C24.0249 0.125 24.0249 0.0625 24.0249 7.45058e-09H16.9917C16.9917 0.0625 16.9917 0.1875 16.9917 0.25C16.9917 2.3125 15.3112 4 13.2573 4C13.1328 4 13.0705 4 12.9461 4C12.6349 5.9375 12.5104 8.4375 13.0083 10.8125C13.0705 10.8125 13.1328 10.8125 13.195 10.8125C14.5643 10.8125 15.6846 11.9375 15.6846 13.3125C15.6846 13.9375 15.4357 14.5 15.0622 14.9375C15.9336 15.6875 17.1162 16.375 18.361 17.125C21.0996 18.75 24.2739 20.625 26.2656 24.1875C26.39 24.1875 26.4523 24.1875 26.5768 24.1875C27.9461 24.1875 29.0664 25.3125 29.0664 26.6875C29.0664 26.8125 29.0664 26.9375 29.0664 27C31.4938 28.5625 34.2946 31.25 37.5311 35.625C38.2158 35.25 39.0249 35.0625 39.834 35.0625V27.9375C39.1494 27.9375 38.5892 27.375 38.5892 26.6875C38.5892 26 39.1494 25.4375 39.834 25.4375V18.3125C37.8423 18.3125 36.0996 17.125 35.2905 15.4375Z" fill="white"/>
<path d="M63.1737 20.0625L70.7048 28V28.1875H67.0326L60.4973 21.1875V28.1875H57.5098V12.4375H60.4973V19.125L66.4724 12.4375H70.1446V12.5L63.1737 20.0625Z" fill="white"/>
<path d="M79.6044 22.375C79.6044 20.6875 78.6708 19.375 76.9281 19.375C75.2476 19.375 74.1273 20.8125 74.1273 22.5V28.1875H71.3887V17.0625H73.8161L74.0028 18.5625C75.1231 17.4375 76.2434 16.875 77.6127 16.875C80.2268 16.875 82.2808 18.8125 82.2808 22.3125V28.125H79.5422V22.375H79.6044Z" fill="white"/>
<path d="M90.1855 26C91.1814 26 92.4884 25.625 93.1731 24.9375L94.9158 26.6875C93.7333 27.875 91.866 28.5 90.1855 28.5C86.3888 28.5 84.0859 26.125 84.0859 22.5625C84.0859 19.1875 86.3888 16.75 89.9366 16.75C93.3598 16.75 95.5382 18.6875 95.5382 22.5625C95.5382 22.875 95.5382 23.25 95.476 23.625H86.8245C87.0735 25 88.2561 26 90.1855 26ZM89.9988 19.1875C88.505 19.1875 87.3225 19.9375 86.8868 21.375H92.8619C92.7374 19.9375 91.6171 19.1875 89.9988 19.1875Z" fill="white"/>
<path d="M100.892 17.125H103.942V19.5H100.892V24.3125C100.892 25.375 101.452 25.875 102.324 25.875C102.759 25.875 103.257 25.75 103.631 25.5625L104.378 27.875C103.506 28.1875 102.822 28.375 101.888 28.375C99.6473 28.375 98.1536 27 98.1536 24.3125V19.5H96.0996V17.125H98.1536V14.25L100.892 13.9375V17.125Z" fill="white"/>
<path d="M114.646 23.625H114.086L109.107 16.75V28.1875H106.119V12.4375H109.542L114.459 19.1875L119.376 12.4375H122.737V28.1875H119.75V16.8125L114.646 23.625Z" fill="white"/>
<path d="M126.534 12.375C127.343 12.375 128.153 12.875 128.153 14C128.153 15.0625 127.343 15.625 126.534 15.625C125.725 15.625 124.916 15.0625 124.916 14C124.916 12.875 125.725 12.375 126.534 12.375ZM125.165 28.1875H127.904V17.0625H125.165V28.1875Z" fill="white"/>
<path d="M138.36 22.375C138.36 20.6875 137.427 19.375 135.684 19.375C134.003 19.375 132.883 20.8125 132.883 22.5V28.1875H130.145V17.0625H132.572L132.759 18.5625C133.879 17.4375 134.999 16.875 136.369 16.875C138.983 16.875 141.037 18.8125 141.037 22.3125V28.125H138.298V22.375H138.36Z" fill="white"/>
<path d="M148.941 26C149.937 26 151.244 25.625 151.929 24.9375L153.672 26.6875C152.489 27.875 150.622 28.5 148.941 28.5C145.145 28.5 142.842 26.125 142.842 22.5625C142.842 19.1875 145.145 16.75 148.692 16.75C152.116 16.75 154.294 18.6875 154.294 22.5625C154.294 22.875 154.294 23.25 154.232 23.625H145.58C145.829 25 147.074 26 148.941 26ZM148.817 19.1875C147.323 19.1875 146.141 19.9375 145.705 21.375H151.68C151.493 19.9375 150.373 19.1875 148.817 19.1875Z" fill="white"/>
<path d="M159.024 18.375C159.895 17 161.015 16.8125 162.136 16.8125C163.256 16.8125 164.376 17.25 164.999 17.875L163.754 20.25C163.194 19.75 162.696 19.5 161.762 19.5C160.331 19.5 159.024 20.25 159.024 22.3125V28.1875H156.285V17.125H158.837L159.024 18.375Z" fill="white"/>
</g>
<defs>
<clipPath id="clip0_3762_15108">
<rect width="165" height="40" fill="white"/>
</clipPath>
</defs>
</svg>
