<svg width="24" height="24" viewBox="0 0 24 24" fill="none" xmlns="http://www.w3.org/2000/svg">
<g id="Arrow / Right / Left">
<path id="Arrow / Right / Left_2" d="M9.79023 17.613L9.70703 17.7072C9.34651 18.0676 8.77927 18.0953 8.38702 17.7902L8.29282 17.707L3.2962 12.7094C2.93596 12.3491 2.90809 11.7822 3.21271 11.3899L3.29579 11.2957L8.29241 6.29229C8.68266 5.90149 9.31583 5.90106 9.70662 6.29132C10.0673 6.65156 10.0955 7.21877 9.79071 7.61127L9.70759 7.70553L6.419 11H20C20.5128 11 20.9355 11.386 20.9933 11.8834L21 12C21 12.5128 20.614 12.9355 20.1166 12.9933L20 13H6.416L9.70718 16.293C10.0676 16.6535 10.0953 17.2207 9.79023 17.613L9.70703 17.7072L9.79023 17.613Z" fill="#121212"/>
</g>
</svg>
