<svg width="167" height="145" viewBox="0 0 167 145" fill="none" xmlns="http://www.w3.org/2000/svg">
<g id="Image">
<g id="freepik  Device  inject 2">
<path id="Vector" d="M14.2387 54.001L148.402 52.75L152.328 144.119L13.4062 143.124L14.2387 54.001Z" fill="#51CE7B"/>
<path id="Vector_2" d="M14.2383 54.0197L77.6167 2.41678C78.9186 1.35629 80.5454 0.777344 82.2234 0.777344C83.9014 0.777344 85.5282 1.35629 86.8302 2.41678L148.392 52.7593" fill="#51CE7B"/>
<g id="Group" opacity="0.3">
<path id="Vector_3" opacity="0.3" d="M14.2383 54.0197L77.6167 2.41678C78.9186 1.35629 80.5454 0.777344 82.2234 0.777344C83.9014 0.777344 85.5282 1.35629 86.8302 2.41678L148.392 52.7593" fill="#121212"/>
</g>
<path id="Vector_4" d="M13.4061 143.106C13.2453 142.945 23.9534 131.174 37.3385 116.816C50.7237 102.459 61.7155 90.9817 61.8858 91.1144C62.0561 91.2471 51.3385 103.037 37.9439 117.404C24.5493 131.771 13.5764 143.276 13.4061 143.106Z" fill="#121212"/>
<path id="Vector_5" d="M152.327 144.12C152.157 144.281 141.675 132.747 128.915 118.465C116.154 104.183 105.947 92.4031 106.117 92.2515C106.288 92.0998 116.769 103.624 129.539 117.916C142.309 132.207 152.497 143.968 152.327 144.12Z" fill="#121212"/>
<g id="Group_2" opacity="0.5">
<path id="Vector_6" opacity="0.5" d="M148.402 52.75L81.1451 106.808L14.2383 54.001" fill="#121212"/>
</g>
<path id="Vector_7" d="M21.0117 58.9848L20.709 17.0012L138.186 15.3711L139.595 59.5345L81.136 106.096L21.0117 58.9848Z" fill="white"/>
<path id="Vector_8" d="M21.0109 58.9863C21.0109 58.9863 21.3987 59.2611 22.1271 59.8203L25.3244 62.2938L37.4893 71.7709C47.9704 79.9687 63.0298 91.6729 81.2582 105.964H81.0122L139.443 59.3654L139.358 59.5644C139.084 51.1392 138.8 42.2971 138.516 33.3033C138.318 27.2474 138.128 21.2579 137.939 15.3915L138.185 15.6284L20.7176 17.1827L20.869 17.0216C20.9258 30.2232 20.9825 40.7144 21.0109 47.8981C21.0109 51.4899 21.0109 54.2572 21.0109 56.1431C21.0109 57.0909 21.0109 57.7827 21.0109 58.2755C21.0109 58.7683 21.0109 59.0052 21.0109 59.0052C21.0109 59.0052 21.0109 58.7683 21.0109 58.2945C21.0109 57.8206 21.0109 57.1003 21.0109 56.1811C21.0109 54.2856 20.9541 51.5373 20.9163 47.9549C20.8501 40.7428 20.746 30.2517 20.623 17.0216V16.8699H20.7744L138.176 15.1641H138.422V15.4105C138.611 21.2768 138.8 27.2569 138.999 33.3127C139.283 42.3065 139.566 51.1487 139.831 59.5739V59.6971L139.737 59.7729L81.2393 106.306L81.1163 106.41L80.9933 106.306L37.2717 71.932L25.2014 62.398L22.0514 59.8961L21.0109 58.9863Z" fill="#121212"/>
<path id="Vector_9" d="M119.664 36.5427C119.664 36.6754 101.691 36.9312 79.5372 37.1113C57.3831 37.2914 39.4102 37.3293 39.4102 37.1966C39.4102 37.0639 57.3831 36.808 79.5372 36.6185C101.691 36.4289 119.664 36.4005 119.664 36.5427Z" fill="#121212"/>
<path id="Vector_10" d="M119.684 48.3995C119.684 48.5321 101.711 48.7975 79.5665 48.9776C57.4219 49.1576 39.4395 49.1955 39.4395 49.0534C39.4395 48.9112 57.4124 48.6648 79.5665 48.4848C101.721 48.3047 119.684 48.2668 119.684 48.3995Z" fill="#121212"/>
<path id="Vector_11" d="M119.711 62.0674C119.711 62.2096 101.738 62.4655 79.5938 62.6456C57.4492 62.8256 39.4668 62.8635 39.4668 62.7214C39.4668 62.5792 57.4398 62.3328 79.5938 62.1527C101.748 61.9727 119.711 61.9348 119.711 62.0674Z" fill="#121212"/>
<path id="Vector_12" d="M119.739 75.7318C119.739 75.8739 102.608 76.1203 81.466 76.2909C60.3241 76.4615 43.1836 76.4994 43.1836 76.3573C43.1836 76.2151 60.3147 75.9687 81.466 75.7981C102.617 75.6275 119.739 75.5991 119.739 75.7318Z" fill="#121212"/>
<path id="Vector_13" d="M104.757 87.7583C104.603 87.8014 104.443 87.8206 104.284 87.8152L102.931 87.8721L97.9741 87.9953L81.5998 88.2985C75.2052 88.4123 69.4066 88.4502 65.216 88.4502H60.2593H58.9066C58.7475 88.4543 58.5886 88.4384 58.4336 88.4028C58.5874 88.3597 58.7469 88.3405 58.9066 88.3459L60.2498 88.2891L65.216 88.1658L81.5904 87.8721C87.985 87.7489 93.7741 87.7109 97.9647 87.7109H102.931H104.284C104.442 87.7111 104.601 87.727 104.757 87.7583Z" fill="#121212"/>
<path id="Vector_14" d="M89.6208 99.3192C86.7906 99.5745 83.9478 99.6631 81.1073 99.5846C78.2674 99.6743 75.4248 99.5984 72.5938 99.3571C75.4243 99.1074 78.2667 99.0188 81.1073 99.0918C83.9471 99.0076 86.7894 99.0836 89.6208 99.3192Z" fill="#121212"/>
</g>
</g>
</svg>
